<svg id="brush" data-name="Layer 1" xmlns="http://www.w3.org/2000/svg" viewBox="0 0 512 512">
	<path fill="#46F2B6" d="M512,412.67c-3,1.81-5.9,3.66-8.88,5.42-42.2,25-87.92,40.78-135.5,51.61a486.92,486.92,0,0,1-84.31,11.63A384.31,384.31,0,0,1,216,479.07c-41.45-5.28-80.57-17.18-114.7-42.16C77.72,419.65,59,398,46.11,371.64a193.32,193.32,0,0,1-17.68-55.08,155.4,155.4,0,0,1,1.88-58.26c4.49-20.35,13.13-38.79,24.85-56,17.73-26,41.87-44.17,69.33-58.68,24.81-13.11,51.54-18.91,79.09-21.88,22.3-2.41,44.7-2.28,67.08-2.86,22.74-.6,45.49-1.38,68.19-2.74,13.53-.81,26.92-3.37,38.85-10.36a57.76,57.76,0,0,0,12.39-9.78c5.84-6.1,6.23-14,5.26-21.9-2-16.12-9.49-29.91-18.14-43.31-7-10.92-15.68-20.38-25-29.26-.52-.5-1-1-1.5-1.58h26.89a163.25,163.25,0,0,1,25.24,36.33c6.15,12.16,10.81,24.77,11.85,38.49,1.11,14.85-2.84,27.84-14.06,38.16a71.94,71.94,0,0,1-18.44,12.21c-15.68,7.32-32.48,10-49.5,10.73-25.83,1.16-51.69,1.55-77.54,2.39-20.22.65-40.52.29-60.51,4.34-4.38.89-8.85,1.37-13.23,2.25-39.86,8-74.36,25.59-101.25,56.74C65.73,218.28,55.42,237.05,50,258.46a134.84,134.84,0,0,0-2.58,55.72,175.74,175.74,0,0,0,20.75,58C81.51,396,101,414,123.55,428.78c14.52,9.48,30.5,16.06,47.05,21.19,34.08,10.56,69.09,13.64,104.56,12.57a451.62,451.62,0,0,0,83.37-10.44c28.8-6.32,57.05-14.36,84.26-26,24-10.28,47.37-21.54,69.21-35.89Z" />
	<path  fill="#46F2B6" d="M512,366.58c-26.13,20.55-55.91,34.27-86.72,45.91-13.38,5.05-27.22,8.9-40.83,13.38-24,7.92-48.84,12.07-73.83,15.11-28.57,3.48-57.21,4.13-85.88.9-20.5-2.3-40.69-6.14-59.85-13.87-22-8.86-42.44-20.35-59.25-37.48-17-17.38-28.37-38.06-35.41-61.24-7.28-24-7.85-47.94-.35-72,7-22.44,20.12-40.63,37.39-56.32,26.93-24.47,59.16-36.26,94.61-40.12,16.6-1.8,33.34-2.37,50-3,27.84-1.07,55.72-1.42,83.55-2.71,18-.83,36-3.54,52.39-11.5s30.84-18.11,39.26-35.05c5.85-11.75,7.31-24.2,6.11-37.07-1.34-14.37-6.09-27.71-12.16-40.71A174.39,174.39,0,0,0,403.39,1.86C403,1.28,402.63.62,402.25,0h23.59a16.09,16.09,0,0,0,.81,1.67,171.15,171.15,0,0,1,15.52,29.2c5.22,13.05,9.09,26.39,10.26,40.46,2.42,29.19-7.56,53.48-29.35,72.76a108,108,0,0,1-18.74,12.79c-19.42,10.93-40.78,15.52-62.71,16.89-24.43,1.53-48.92,2.13-73.4,2.79-22.19.59-44.4.56-66.49,3.41-27,3.48-51.91,12-73.7,28.88-17.12,13.25-30.76,28.93-38.28,49.59a98.86,98.86,0,0,0-3.27,57.66A129,129,0,0,0,116,373.43c15.73,17.68,35.7,29.13,57.78,37,31.88,11.41,64.95,14.51,98.52,13.65a412.52,412.52,0,0,0,81.7-10.4c42.44-9.7,83.46-23.23,121-45.87,5.56-3.35,11.18-6.61,16.5-10.3,7-4.84,13.69-10.05,20.51-15.11Z" />
	<path  fill="#46F2B6" d="M469.74,0a182,182,0,0,1,19.43,59c4,28.51.1,55.65-14.1,81.08-12.79,22.9-31.72,39.12-54.52,51.25-4.83,2.56-9.94,4.58-14.91,6.89-19.94,9.24-41.29,12.58-62.9,14.06-20.68,1.42-41.43,1.85-62.16,2.55-17.72.59-35.46.66-53.16,1.47-19.51.89-38.78,3.41-56.91,11.4-12.11,5.34-23.08,12.52-31.82,22.42C123.34,267.5,118,287.38,124.2,310.36c7.32,26.93,23.94,45.43,48.39,58.07,18.61,9.61,38.48,14,58.94,16.2,44,4.77,87.29-.36,129.75-11.8,34.59-9.32,68.19-21.61,99-40.42a297.5,297.5,0,0,0,26-18.29c8.09-6.22,15.69-13.07,23.52-19.63A20.36,20.36,0,0,1,512,293v24.7C486.9,340.8,458,357.94,426.75,371c-55.92,23.45-114.22,35.63-175.08,34.2a238.37,238.37,0,0,1-57.14-8c-25.2-6.84-48.11-17.72-65.55-37.93s-27-43.42-26.33-70.15c.52-21.93,9.74-40.38,25.31-55.69,21.23-20.87,47.69-30.75,76.43-34.67,16.15-2.21,32.59-2.52,48.92-3.13,23.83-.9,47.68-1.19,71.51-1.94,20-.63,39.78-2.62,59-8.35,28.57-8.51,53.25-22.81,70.36-48.19a100,100,0,0,0,17.19-51c1.24-20.93-3.1-40.93-10.86-60.17-3.61-8.94-8.44-17.38-12.72-26Z" />
</svg>
