<svg id="b2529500-4b38-4a11-ba8d-1b2f8169f0d9" data-name="Layer 1" xmlns="http://www.w3.org/2000/svg" viewBox="0 0 512 464.34"><path d="M512,471.39c-8.34,4.2-16.5,8.84-25.09,12.47A121.9,121.9,0,0,1,466,490.28c-39.23,8.78-78.16,7.69-116.12-5.92a251,251,0,0,1-76.73-44.14,346.52,346.52,0,0,1-62.62-68.62c-12.53-18.1-23.94-37-32.89-57.13-8.26-18.59-16-37.43-23.42-56.35s-14.34-37.89-21.36-56.89a480.9,480.9,0,0,0-25.79-57.69c-11.6-22-26.32-41.33-46-56.9C44,73,24.39,65.27,3.22,60.91c-1.07-.22-2.15-.36-3.22-.55V56c3.06.18,6.16.13,9.18.56,26.14,3.65,49.74,13,70.08,30.29,18.86,16,33.56,35.2,45.4,56.81a501.77,501.77,0,0,1,27.14,57.68c7.38,18.77,14.48,37.65,22.25,56.25,8.19,19.61,16.65,39.13,25.69,58.36,9.31,19.8,21.42,38,34.22,55.7a328.09,328.09,0,0,0,52.76,56.61c23,19.74,48.84,34.89,77.78,44.45,27.69,9.14,56.07,11.62,85,9C468,480,486,475.58,502.94,467.53c3-1.44,6-2.91,9.06-4.37Z" transform="translate(0 -31.59)"/><path d="M0,51V46.1a138.14,138.14,0,0,1,33.08.17q48.65,6.48,84,40.63a253.09,253.09,0,0,1,44,56.74,547.85,547.85,0,0,1,29,57.4c8.08,19,15.93,38,24.52,56.76,8.86,19.32,18.05,38.51,27.89,57.33C253,335.27,266.71,353.38,281,371a280.37,280.37,0,0,0,63.6,57.42c8.77,5.83,18.38,10.54,28,15,19.62,9,40.5,13.42,61.92,15.29,18.4,1.6,36.76,1.25,54.75-3.31,7.74-2,15.21-5,22.81-7.58v7.14c-5.74,2.55-11.33,5.56-17.26,7.57C465,472.57,434.58,472.9,404,467.84c-34.48-5.71-65.06-20.24-92.4-42-22.14-17.64-41.92-37.44-58.74-60.25-12.76-17.31-24.59-35.14-34.34-54.36q-14.21-28-25.93-57.06-11.37-28.33-23.36-56.41a477,477,0,0,0-34.3-66.64C123.54,113,109.86,96.62,93.34,83,66.33,60.81,35,50.36,0,51Z" transform="translate(0 -31.59)"/><path d="M0,36.77c5.49-1.27,10.93-2.94,16.49-3.72,30-4.21,58.58.77,85.82,13.77a179.47,179.47,0,0,1,51.92,37.57c16.34,16.92,31.12,35.21,42.89,55.62q16.06,27.84,30.46,56.64c9.52,19.09,18.14,38.65,26.88,58.12a530.15,530.15,0,0,0,29.37,55.65c12.55,20.92,27.46,40,43.65,58.22s34.76,33.91,56.1,45.93c7.76,4.38,16.07,7.82,24.26,11.39,19.81,8.62,40.78,12.19,62.18,13.47a118.14,118.14,0,0,0,42-4.81v6.59a16,16,0,0,0-1.81.47,118.54,118.54,0,0,1-29.57,6.7,177.89,177.89,0,0,1-46.72-1.72c-21.7-3.57-42.53-9.52-61.88-20.57a254.65,254.65,0,0,1-69.25-57.77c-15.2-18.07-29.33-36.85-41-57.45a581.13,581.13,0,0,1-28.14-56c-8.39-19.45-16.74-38.93-26-58s-19.1-37.79-29.56-56.18c-11.93-21-27.12-39.63-44.29-56.57A159.82,159.82,0,0,0,89,53C65.5,42,40.87,37.16,15,39.44,10,39.88,5,40.58,0,41.16Z" transform="translate(0 -31.59)"/></svg>